<svg width="91" height="81" viewBox="0 0 91 81" fill="none" xmlns="http://www.w3.org/2000/svg">
<path d="M69.3754 54.0111C71.1561 60.1737 74.0728 74.1074 67.4341 78.16C62.6507 81.0813 55.6699 76.7436 51.8361 73.813C49.5026 72.0288 47.4216 69.9245 45.2731 67.9646C42.2331 70.951 39.0907 73.92 35.4257 76.1395C31.4698 78.5347 25.292 81.0684 21.6073 76.8436C17.1078 71.6831 19.5298 60.048 21.2546 54.0111C26.1149 55.1819 31.0403 55.8535 36.0123 56.397C38.7357 60.3867 41.8037 64.125 45.0764 67.6713L45.3604 67.8342C48.7298 64.2612 51.8338 60.4472 54.6177 56.397C59.5792 55.8395 64.5256 55.1936 69.3754 54.0111Z" stroke="white" stroke-width="2.5" stroke-miterlimit="10"/>
<path d="M27.8802 1.25116C28.6507 1.44786 29.4375 1.55726 30.2044 1.77374C33.6285 2.74323 37.29 5.28393 40.0227 7.52901C41.8837 9.05831 43.5818 10.8088 45.3567 12.3986C50.2193 7.57905 55.6615 2.57331 62.633 1.25116H64.7256C66.9346 1.63407 68.614 2.71762 69.7721 4.631C72.3337 8.86162 71.6808 15.5096 70.83 20.1964C70.4529 22.2739 69.8978 24.3118 69.374 26.3521C73.3975 27.3902 77.4361 28.6402 81.1162 30.592C84.6415 32.4623 88.4229 35.2148 89.2504 39.3686V41.2285C89.0071 41.6742 88.9606 42.1968 88.7709 42.6658C86.2395 48.9251 75.4284 52.5342 69.3752 54.0111C68.0065 49.2766 66.0896 44.6968 64.0552 40.2206C65.9965 35.6932 68.0868 31.1716 69.2495 26.3625C64.4649 25.0904 59.5325 24.5248 54.614 23.9685C51.8196 19.9311 48.754 16.074 45.3567 12.5313C45.1588 12.4963 43.7552 14.1118 43.5108 14.3806C40.7909 17.3869 38.334 20.6468 36.0144 23.9685C31.0447 24.4876 26.1065 25.1719 21.2544 26.3521C20.7854 24.7227 20.3512 23.0409 20.0125 21.3766C18.8952 15.8925 17.5405 5.02206 23.6543 1.96344L25.904 1.25H27.8802V1.25116Z" stroke="white" stroke-width="2.5" stroke-miterlimit="10"/>
<path d="M21.2556 26.3533C22.629 31.1204 24.5529 35.7084 26.5768 40.2218C24.5249 44.6957 22.6115 49.2661 21.2556 54.0123C14.2679 52.3294 -4.65995 45.7908 3.07504 35.5442C6.70977 30.7305 15.5574 27.7394 21.2556 26.3533Z" stroke="white" stroke-width="2.5" stroke-miterlimit="10"/>
<path d="M41.8046 24.0628C46.0015 23.9313 50.2134 24.0349 54.3812 24.4352C57.8181 29.384 60.7848 34.6353 63.3988 40.0647C63.4372 40.2521 62.6306 41.9397 62.4642 42.2783C60.1342 47.0455 57.3188 51.6125 54.3044 55.9676L48.5165 56.34C44.4139 56.3598 40.3311 56.2853 36.2483 55.9292C32.7917 50.9979 29.846 45.7233 27.2319 40.2986V40.0647C29.8145 34.6539 32.7952 29.4328 36.1925 24.4934C36.331 24.3782 37.2865 24.2909 37.5879 24.2618C38.931 24.1315 40.4475 24.1047 41.8057 24.0628H41.8046Z" stroke="white" stroke-width="2.5" stroke-miterlimit="10"/>
<path d="M41.097 30.2568C40.9213 30.3022 40.1601 30.9656 39.9646 31.139C37.8348 33.0222 35.8899 35.9306 36.5266 38.9043C36.7756 40.0658 37.5822 40.8991 37.8569 41.9978C38.4237 44.2615 37.6136 46.545 36.5161 48.4991C36.3601 48.7773 34.9542 50.494 36.0925 50.0866C37.3424 49.6385 39.6329 47.0885 40.2381 45.8874C42.4285 41.5393 39.2104 39.8517 39.5119 35.8131C39.6131 34.456 40.2532 32.7533 40.8713 31.5429C41.0237 31.2438 42.0095 30.0252 41.0982 30.258L41.097 30.2568Z" stroke="white" stroke-width="1.5" stroke-miterlimit="10"/>
<path d="M47.7285 30.2545C47.6122 30.2883 46.6171 31.1344 46.4495 31.2915C44.2207 33.3865 42.3376 36.4707 43.4572 39.6131C43.7179 40.3463 44.2509 41.0307 44.4907 41.7965C45.1913 44.0358 44.3487 46.5311 43.2512 48.4992C43.1034 48.7645 41.6835 50.5126 42.8287 50.0878C43.0708 49.9982 44.0368 49.2452 44.287 49.0322C46.2539 47.3597 47.8717 44.9634 47.6447 42.2632C47.5121 40.6745 46.5775 39.5537 46.297 38.0826C45.8885 35.9435 46.439 33.7426 47.3677 31.8083C47.4911 31.5511 48.1347 30.6165 48.1487 30.4745C48.172 30.2324 47.9008 30.2068 47.7285 30.2557V30.2545Z" stroke="white" stroke-width="1.5" stroke-miterlimit="10"/>
<path d="M54.4684 30.2569C54.2996 30.2999 53.6199 30.8784 53.436 31.0378C50.9558 33.1956 48.8225 36.5289 50.2238 39.8843C51.0338 41.8244 51.6891 42.2399 51.3504 44.634C51.0862 46.4985 50.0946 48.3257 49.0052 49.8306C48.9691 50.4731 49.6838 49.9551 49.9607 49.7782C52.3339 48.2664 54.6173 45.3125 54.3811 42.3621C54.2368 40.5605 53.0415 39.1895 52.8878 37.5228C52.6935 35.4174 53.2975 33.39 54.2414 31.5418C54.3939 31.2426 55.3797 30.0253 54.4684 30.258V30.2569Z" stroke="white" stroke-width="1.5" stroke-miterlimit="10"/>
</svg>
